<svg width="24" height="24" viewBox="0 0 24 24" fill="none" xmlns="http://www.w3.org/2000/svg">
<path d="M21 13.4227V20H17.1419V13.863C17.1419 12.3209 16.5836 11.2691 15.1876 11.2691C14.1216 11.2691 13.4867 11.9787 13.208 12.6641C13.1061 12.9092 13.08 13.2506 13.08 13.5938V20H9.22005C9.22005 20 9.27236 9.60675 9.22005 8.5291H13.08V10.1549L13.0547 10.1924H13.08V10.1549C13.5922 9.375 14.5076 8.25991 16.5575 8.25991C19.0962 8.25991 21 9.90001 21 13.4227ZM5.18338 3C3.86397 3 3 3.8557 3 4.98149C3 6.08232 3.83872 6.96387 5.13287 6.96387H5.15812C6.50458 6.96387 7.3406 6.08232 7.3406 4.98149C7.31715 3.8557 6.50458 3 5.18338 3ZM3.22907 20H7.08718V8.5291H3.22907V20Z" fill="white"/>
</svg>
