<svg width="24" height="24" viewBox="0 0 24 24" fill="none" xmlns="http://www.w3.org/2000/svg">
<mask id="mask0_718_31" style="mask-type:luminance" maskUnits="userSpaceOnUse" x="0" y="0" width="24" height="24">
<path d="M0 0H24V24H0V0Z" fill="white"/>
</mask>
<g mask="url(#mask0_718_31)">
<path d="M21.9998 7H14.9998V5H21.9998V7ZM23.7257 17C23.2837 18.297 21.6968 20 18.6248 20C15.5508 20 13.0609 18.271 13.0609 14.325C13.0609 10.415 15.3858 8.405 18.5268 8.405C21.6088 8.405 23.4907 10.187 23.9017 12.831C23.9797 13.337 24.0107 14.019 23.9967 14.971H15.9698C16.0998 18.182 19.4528 18.283 20.5578 17H23.7257ZM16.0398 13H21.0048C20.8998 11.453 19.8688 10.781 18.5278 10.781C17.0618 10.781 16.2508 11.549 16.0398 13ZM6.46593 19.988H0V5.021H6.95293C12.4289 5.102 12.5329 10.465 9.6729 11.927C13.1339 13.187 13.2499 19.988 6.46593 19.988ZM2.99997 11H6.58393C9.0919 11 9.4899 8 6.27193 8H2.99997V11ZM6.39093 14H2.99997V17.016H6.34093C9.3959 17.016 9.2089 14 6.39093 14Z" fill="white"/>
</g>
</svg>
